<svg version="1.2" xmlns="http://www.w3.org/2000/svg" viewBox="0 0 806 806" width="806" height="806">
	<title>Screenshot 2025-09-06 at 20</title>
	<style>
		.s0 { fill: #ffffff } 
		.s1 { fill: #c8e1fc } 
		.s2 { fill: #1d2c52 } 
		.s3 { fill: #326bf6 } 
		.s4 { fill: #5dbc9c } 
	</style>
	<g id="Background">
		<path id="Path 0" class="s0" d="m-113 403v403h1052v-806h-1052z"/>
		<path id="Path 1" fill-rule="evenodd" class="s1" d="m404.75 217.02c2.89-0.01 6.83 0.66 8.75 1.48 1.92 0.82 3.49 1.84 3.48 2.25-0.01 0.41-2.83 4.45-6.25 8.98-3.43 4.53-6.68 8.24-7.23 8.26-0.55 0.01-1.81-1.44-2.8-3.23-0.99-1.79-2.45-4.05-3.25-5.01-1.36-1.65-1.72-1.57-5.95 1.25-2.48 1.65-4.34 3.56-4.14 4.25 0.2 0.69 3.62 6.2 7.6 12.25 3.97 6.05 7.3 11.12 7.38 11.27 0.09 0.15 5.22-6.26 11.41-14.25 6.19-7.98 11.7-14.75 12.25-15.02 0.55-0.28 1.45 1.19 1.99 3.25 0.55 2.06 0.97 5.55 0.93 7.75-0.04 2.2-0.6 5.43-1.25 7.18-0.64 1.76-2.52 5.14-4.17 7.52-2.12 3.06-4.76 5.18-9 7.24-5.21 2.52-6.79 2.83-12 2.38-3.3-0.29-7.35-1.23-9-2.09-1.65-0.86-4.51-3.06-6.36-4.89-1.84-1.84-4-4.91-4.8-6.84-0.8-1.93-1.44-6.2-1.42-9.5 0.01-3.94 0.7-7.37 2.01-10 1.09-2.2 3.47-5.53 5.28-7.4 1.81-1.87 5.09-4.22 7.29-5.23 2.22-1.01 6.34-1.84 9.25-1.85zm47.52 11.98h168.23l-1 31.5-168.5 0.5v-8.25c-0.01-4.54 0.28-11.74 0.63-16zm-48.27 72.4c4.8 0.37 7.67 1.23 10.95 3.3 2.56 1.61 5.75 4.9 7.5 7.73 2.66 4.3 3.05 5.82 3.01 12-0.03 5.23-0.59 8.11-2.16 11.07-1.17 2.2-3.63 5.44-5.46 7.2-1.84 1.76-5.03 3.9-7.09 4.75-2.06 0.85-6.34 1.56-9.5 1.58-4.38 0.02-7.03-0.63-11.11-2.75-3.33-1.73-6.55-4.43-8.5-7.14-2.62-3.63-3.2-5.45-3.48-11-0.24-4.71 0.18-7.95 1.46-11.14 0.99-2.48 3.16-6.04 4.84-7.91 1.67-1.88 5.29-4.49 8.04-5.81 4.2-2 6.05-2.31 11.5-1.88zm48.28 9.6h168.22l-1 31.5-168.5 0.5 0.01-7.75c0-4.26 0.29-11.46 0.63-16zm-114.77 63.93l7.5 20.73c4.12 11.41 8.06 21.32 8.75 22.04 0.69 0.71 1.25 2.31 1.25 3.55 0 1.24 2.81 10.22 12.5 37.69l-143.97-0.44-14.71-41c-8.09-22.55-14.73-41.34-14.76-41.75-0.03-0.41 32.23-0.77 143.44-0.82zm406.5 2.07l-7.85 10.25c-4.32 5.64-18.74 24.42-56.22 73.25l0.07 222.5-256.25-0.23c-140.94-0.13-243.54-0.36-199.75-0.77v-217h138v216h6v-220h150v70h48v-70h66l-0.01-4.25c-0.01-2.34 0.51-20.23 1.16-39.75 0.65-19.52 1.47-35.73 1.84-36 0.36-0.27 0.95-1.29 1.31-2.25 0.61-1.64 4.11-1.75 107.7-1.75zm-342.5 8.52c2.88 0.29 7.12 1.7 10 3.35 3.32 1.89 6 4.46 8 7.68 2.17 3.49 3.09 6.37 3.34 10.39q0.35 5.56-1.44 10.06c-0.99 2.48-3.4 6.24-5.35 8.37-1.95 2.13-5.13 4.67-7.05 5.63-1.93 0.97-5.3 2.08-7.5 2.47-2.62 0.47-5.9 0.18-9.5-0.84-3.03-0.86-7.08-2.85-9-4.41-1.93-1.57-4.51-4.85-5.74-7.29-1.56-3.09-2.24-6.25-2.26-10.43-0.02-4.61 0.61-7.26 2.74-11.43 1.52-2.99 4.33-6.71 6.26-8.28 1.92-1.57 5.52-3.51 8-4.31 2.7-0.87 6.5-1.25 9.5-0.96zm129.05 10.48c45.9 0 83.57 0.34 83.71 0.75 0.15 0.41 0.15 7.61-0.26 31.25h-169l0.62-15.25c0.34-8.39 0.81-15.59 1.05-16 0.23-0.41 37.98-0.75 83.88-0.75zm-389.55 286.42c10.17 0 14.22 0.14 9 0.33-5.23 0.18-13.55 0.18-18.5 0-4.95-0.19-0.68-0.33 9.5-0.33z"/>
		<path id="Path 2" class="s2" d="m224 462v3h138v216h6v-222h-144zm-59.3 99.75c-0.34 8.11-1.42 38.71-2.4 68l-1.8 53.25h-90.5v6h630v-6h-534c0.86-17.44 1.96-47.7 3-78.5 1.47-43.33 1.62-56.17 0.7-56.73-0.66-0.41-1.92-0.75-2.8-0.75-1.37-0.02-1.69 2.12-2.2 14.73z"/>
		<path id="Path 3" class="s3" d="m144.75 547.75l-19.75 0.25c0 4.26-0.67 34.3-1.49 69.5-0.82 35.2-1.38 64.08-1.25 64.18 0.13 0.1 8.81 0.32 19.28 0.5l19.05 0.32c3.45-104.63 4.33-135 4.18-135-0.15 0-9.16 0.11-20.02 0.25zm26.21 0.75c-0.01 0.55-1.09 30.92-2.4 67.5-1.3 36.58-2.29 66.5-2.21 66.5 0.08 0 13.09-0.11 28.9-0.25l28.75-0.25v-134.5c-43.48 0-53.01 0.36-53.04 1z"/>
		<path id="Path 4" class="s4" d="m375.38 126.22l-8.07 28.28c73.77 0.4 117.11 0.4 143.91 0.26l48.71-0.26c-135-43.4-174.71-56.13-175.34-56.28-0.71-0.18-4.23 10.52-9.21 28zm-41.28 146.08c-15.62 55.11-28.55 100.76-28.75 101.45-0.27 0.96 3.37 1.24 15.9 1.22l16.25-0.04c10.72 29.89 14.39 39.69 15.08 41.07l1.25 2.5c0.78-3.88 2.94-59.19 5.32-125.43 2.37-66.24 4.09-120.55 3.83-120.7-0.26-0.15-13.26 44.82-28.88 99.93zm306.83-81.55c-0.04 5.36-1.53 50.25-3.31 99.75-1.78 49.5-3.1 90.23-2.93 90.5 0.17 0.27 0.49 0.27 0.71 0 0.23-0.27 12.14-41.9 26.47-92.5 14.33-50.6 25.74-92.3 25.34-92.66-0.39-0.36-10.61-3.84-22.71-7.74-12.1-3.89-22.34-7.08-22.75-7.09-0.41 0-0.78 4.38-0.82 9.74zm-219.53 25.01c-1.54 2.06-3.04 3.96-3.35 4.24-0.3 0.27-3.47 4.43-7.05 9.23-3.58 4.8-6.95 8.74-7.5 8.76-0.55 0.01-1.81-1.44-2.8-3.23-0.99-1.79-2.45-4.05-3.25-5.01-1.36-1.65-1.72-1.57-5.95 1.25-2.47 1.65-4.34 3.56-4.14 4.25 0.2 0.69 3.62 6.2 7.6 12.25 3.97 6.05 7.3 11.12 7.38 11.27 0.09 0.14 6.75-8.18 14.81-18.5 8.06-10.32 14.95-19.45 15.31-20.27 0.43-0.99-0.47-2.38-2.65-4.07-1.82-1.41-3.83-2.87-4.46-3.24-0.66-0.39-2.34 0.92-3.95 3.07z"/>
	</g>
</svg>